<svg width="404" height="50" viewBox="0 0 404 50" fill="none" xmlns="http://www.w3.org/2000/svg">
<path d="M219.642 49.9769H218.36L261.417 0H262.827L219.642 49.9769Z" fill="#00205C"/>
<path d="M0 49.7206L42.5444 0.384441H70.352V49.3361H54.462V35.6245H31.5238L19.6063 49.5924H0V49.7206ZM54.5901 23.707V9.35465L41.7755 23.707H54.5901Z" fill="#00205C"/>
<path d="M78.1689 49.5924H94.1872V18.453L110.077 49.4643H123.148L139.038 18.3249V49.5924H154.416V0.384441H129.427L116.356 30.3706L103.029 0.512575H78.1689V49.5924Z" fill="#00205C"/>
<path d="M161.72 0.384441V49.7206H177.738V36.1371H207.34V24.7321H177.738V14.9931H213.619V0.384441H161.72Z" fill="#00205C"/>
<path d="M242.196 23.8351C242.324 24.2196 242.58 24.604 242.836 24.8603C243.221 25.2447 243.733 25.6292 244.246 25.8854C244.887 26.1417 245.527 26.5262 246.424 26.9106C247.45 27.2951 248.475 27.8076 249.244 28.1921C250.141 28.7047 250.781 29.2172 251.422 29.858C252.063 30.4987 252.447 31.1394 252.832 32.0364C253.216 32.8053 253.344 33.8305 253.344 35.1119C253.344 36.1371 253.216 37.0341 252.96 37.803C252.703 38.7 252.191 39.4689 251.678 40.1096C251.038 40.7504 250.269 41.2629 249.244 41.6474C248.218 42.0318 247.065 42.16 245.656 42.16C243.99 42.16 242.58 41.9037 241.17 41.2629C239.889 40.7504 238.736 39.9815 237.839 39.0845L238.992 37.4186C239.889 38.3156 240.786 38.9563 241.811 39.4689C242.836 39.9815 243.99 40.2378 245.399 40.2378C247.321 40.2378 248.731 39.8533 249.5 38.9563C250.397 38.0593 250.781 36.906 250.781 35.2401C250.781 34.3431 250.653 33.5742 250.397 33.0616C250.141 32.4209 249.884 31.9083 249.372 31.5239C248.859 31.1394 248.347 30.6268 247.706 30.3706C247.065 29.9861 246.296 29.7298 245.399 29.3454C244.374 28.9609 243.605 28.5765 242.836 28.0639C242.067 27.6795 241.427 27.1669 240.914 26.6543C240.658 26.398 240.53 26.2699 240.402 26.0136L242.196 23.8351ZM249.244 15.5056C249.372 15.5056 249.628 15.6338 249.756 15.6338C250.653 15.8901 251.55 16.4027 252.319 16.9152L251.294 18.8374C250.525 18.3248 249.756 17.9404 248.987 17.6841C248.603 17.556 248.218 17.4278 247.706 17.4278" fill="#009FE3"/>
<path d="M258.086 15.6338H271.028V17.6841H260.52V27.0388H269.106V29.0891H260.52V39.8534H271.541V41.9037H258.214V15.6338H258.086Z" fill="#009FE3"/>
<path d="M289.097 39.8534C288.328 40.4941 287.559 41.1348 286.662 41.5192C285.765 41.9037 284.612 42.16 283.459 42.16C280.383 42.16 278.076 41.0067 276.539 38.8282C275.001 36.6497 274.36 33.1898 274.36 28.8328C274.36 26.7825 274.488 24.9884 274.873 23.1944C275.257 21.5285 275.77 20.1189 276.539 18.8374C277.308 17.6841 278.333 16.7871 279.486 16.1464C280.639 15.5056 282.177 15.1212 283.843 15.1212C285.253 15.1212 286.406 15.2493 287.431 15.6338C288.456 16.0182 289.481 16.5308 290.378 17.2997L289.225 19.0937C288.328 18.453 287.559 17.9404 286.662 17.556C285.893 17.2997 284.868 17.0434 283.843 17.0434C282.562 17.0434 281.408 17.2997 280.511 17.8123C279.614 18.3248 278.973 19.0937 278.333 19.9908C277.82 21.0159 277.436 22.1692 277.179 23.5788C276.923 24.9884 276.795 26.6543 276.795 28.4484C276.795 32.2927 277.308 35.1119 278.333 37.0341C279.358 38.9563 281.024 39.8534 283.459 39.8534C284.484 39.8534 285.509 39.7252 286.406 39.3408C287.303 38.9563 288.072 38.4437 288.841 37.803V29.9861H283.202V27.9358H291.147V41.5192H289.481L289.097 39.8534Z" fill="#009FE3"/>
<path d="M309.6 15.6338H312.035V41.9037H310.369L309.857 39.3408C309.088 40.1096 308.191 40.7504 307.037 41.3911C305.884 42.0318 304.603 42.2881 303.193 42.2881C302.168 42.2881 301.271 42.16 300.502 41.9037C299.605 41.6474 298.964 41.1348 298.323 40.6222C297.683 39.9815 297.17 39.2126 296.914 38.1875C296.529 37.1623 296.401 36.009 296.401 34.5994V15.7619H298.836V34.2149C298.836 36.3934 299.22 38.0593 299.861 38.9563C300.63 39.8533 301.783 40.3659 303.449 40.3659C304.218 40.3659 304.859 40.2378 305.5 40.1096C306.14 39.9815 306.781 39.7252 307.294 39.4689C307.806 39.2126 308.319 38.9563 308.703 38.5719C309.088 38.3156 309.472 37.9312 309.728 37.6749V15.6338H309.6Z" fill="#009FE3"/>
<path d="M317.802 15.6338H324.465C325.619 15.6338 326.644 15.7619 327.541 16.0182C328.438 16.2745 329.335 16.7871 329.975 17.2997C330.616 17.8123 331.129 18.5811 331.513 19.4782C331.898 20.3752 332.026 21.4003 332.026 22.6818C332.026 26.5262 330.36 28.8328 327.156 29.7298C327.797 29.9861 328.31 30.3706 328.822 31.0113C329.335 31.5239 329.847 32.549 330.36 33.8305L333.307 41.9037H330.744L327.797 34.0868C327.541 33.3179 327.156 32.6772 326.9 32.1646C326.644 31.652 326.259 31.2676 325.875 31.0113C325.49 30.755 325.106 30.4987 324.593 30.3706C324.081 30.2424 323.568 30.2424 323.056 30.2424H319.98V41.9037H317.545V15.6338H317.802ZM324.337 28.1921C326.259 28.1921 327.669 27.6795 328.438 26.7825C329.207 25.8854 329.591 24.4758 329.591 22.6818C329.591 21.0159 329.207 19.7345 328.438 18.8374C327.669 17.9404 326.259 17.556 324.337 17.556H320.236V28.1921H324.337Z" fill="#009FE3"/>
<path d="M335.998 16.9152V15.5056H343.815V16.9152L341.124 17.1715V40.2378L343.815 40.4941V41.9037H335.998V40.4941L338.689 40.2378V17.1715L335.998 16.9152Z" fill="#009FE3"/>
<path d="M347.916 15.6338H353.811C355.605 15.6338 357.27 15.8901 358.552 16.4027C359.833 16.9153 360.859 17.6841 361.756 18.7093C362.524 19.7345 363.165 21.1441 363.55 22.9381C363.934 24.604 364.062 26.7825 364.062 29.2172C364.062 31.5239 363.806 33.5742 363.422 35.2401C363.037 36.906 362.396 38.1875 361.627 39.2126C360.859 40.2378 359.705 40.8785 358.424 41.3911C357.142 41.7755 355.605 42.0318 353.811 42.0318H347.788V15.6338H347.916ZM354.067 39.8534C355.476 39.8534 356.758 39.5971 357.655 39.2126C358.552 38.8282 359.321 38.1875 359.962 37.2904C360.474 36.3934 360.987 35.3682 361.115 33.9586C361.371 32.549 361.499 30.8831 361.499 28.961C361.499 26.9106 361.371 25.2447 361.115 23.707C360.859 22.2974 360.474 21.1441 359.962 20.247C359.449 19.35 358.68 18.7093 357.655 18.1967C356.63 17.8123 355.476 17.556 353.939 17.556H350.222V39.7252H354.067V39.8534Z" fill="#009FE3"/>
<path d="M368.163 41.9037H365.728L373.929 15.6338H376.492L384.437 41.9037H381.874L379.44 33.4461H370.726L368.163 41.9037ZM376.62 23.8351C376.236 22.4255 375.852 21.2722 375.724 20.3752C375.595 19.4782 375.339 18.7093 375.211 17.9404H375.083C374.955 18.7093 374.826 19.4782 374.57 20.3752C374.314 21.2722 374.058 22.4255 373.545 23.8351L371.238 31.2676H378.671L376.62 23.8351Z" fill="#009FE3"/>
<path d="M387.513 15.6338H393.408C395.202 15.6338 396.868 15.8901 398.149 16.4027C399.431 16.9153 400.456 17.6841 401.353 18.7093C402.122 19.7345 402.762 21.1441 403.147 22.9381C403.531 24.604 403.659 26.7825 403.659 29.2172C403.659 31.5239 403.403 33.5742 403.018 35.2401C402.634 36.906 401.993 38.1875 401.225 39.2126C400.456 40.2378 399.302 40.8785 398.021 41.3911C396.739 41.7755 395.202 42.0318 393.408 42.0318H387.385V15.6338H387.513ZM393.664 39.8534C395.074 39.8534 396.355 39.5971 397.252 39.2126C398.149 38.8282 398.918 38.1875 399.559 37.2904C400.071 36.3934 400.584 35.3682 400.712 33.9586C400.968 32.549 401.096 30.8831 401.096 28.961C401.096 26.9106 400.968 25.2447 400.712 23.707C400.456 22.2974 400.071 21.1441 399.559 20.247C399.046 19.35 398.277 18.7093 397.252 18.1967C396.227 17.8123 395.074 17.556 393.536 17.556H389.82V39.7252H393.664V39.8534Z" fill="#009FE3"/>
</svg>
