<svg width="401" height="51" viewBox="0 0 401 51" fill="none" xmlns="http://www.w3.org/2000/svg">
<path d="M222.589 50.7457H221.18L265.005 0H266.287L222.589 50.7457Z" fill="#009FE3"/>
<path d="M0 50.3613L43.1851 0.384441H71.3772V50.105H55.3589V36.2653H32.1646L20.1188 50.4894H0V50.3613ZM55.3589 23.9633V9.48278L42.2881 23.9633H55.3589Z" fill="#00205C"/>
<path d="M79.194 50.3613H95.3405V18.7093L111.487 50.105H124.814L140.832 18.453V50.2332H156.466V0.384441H131.221L118.022 30.755L104.311 0.512575H79.194V50.3613Z" fill="#00205C"/>
<path d="M163.899 0.384441V50.3613H180.173V36.6497H210.031V25.1166H180.173V15.1212H216.438V0.384441H163.899Z" fill="#00205C"/>
<path d="M263.852 24.0914C262.955 21.1441 262.699 19.4782 262.443 18.0686H262.314C262.058 19.6063 261.674 21.2722 260.777 24.0914L258.47 31.652H266.031L263.852 24.0914ZM255.138 42.4163H252.703L261.033 15.7619H263.724L271.925 42.4163H269.234L266.671 33.8305H257.829L255.138 42.4163Z" fill="#009FE3"/>
<path d="M273.335 29.2172C273.335 20.5033 276.154 15.3775 283.074 15.3775C285.765 15.3775 287.815 16.1464 289.353 17.4278L288.2 19.2219C286.79 18.1967 285.253 17.4278 283.074 17.4278C277.564 17.4278 275.898 21.2722 275.898 29.0891C275.898 36.906 277.564 40.7504 283.202 40.7504C285.509 40.7504 287.175 39.7252 288.584 38.7L289.738 40.4941C288.072 41.7755 285.893 42.8007 283.074 42.8007C276.154 42.8007 273.335 37.9312 273.335 29.2172Z" fill="#009FE3"/>
<path d="M296.786 28.0639L306.012 15.7619H308.703L299.477 27.9358L308.959 42.4163H306.14L296.786 28.0639ZM293.582 15.7619H296.017V42.4163H293.582V15.7619Z" fill="#009FE3"/>
<path d="M320.749 24.092C319.852 21.1447 319.596 19.4788 319.339 18.0692H319.211C318.955 19.6069 318.57 21.2728 317.673 24.092L315.367 31.6526H322.927L320.749 24.092ZM312.035 42.4169H309.6L317.93 15.7625H320.621L328.822 42.4169H326.131L323.568 33.8311H314.726L312.035 42.4169Z" fill="#009FE3"/>
<path d="M339.586 42.8007C333.179 42.8007 330.232 38.1875 330.232 29.2172C330.232 20.8878 333.051 15.3775 339.843 15.3775C342.662 15.3775 344.712 16.1464 346.506 17.6841L345.225 19.4782C343.431 18.0686 342.021 17.4278 339.843 17.4278C334.46 17.4278 332.795 21.6566 332.795 29.0891C332.795 36.7778 334.589 40.7504 339.586 40.7504C341.765 40.7504 343.559 39.8534 344.968 38.5719V30.6268H339.202V28.5765H347.275V42.4163H345.609L345.097 40.4941C343.943 41.7755 342.021 42.8007 339.586 42.8007Z" fill="#009FE3"/>
<path d="M351.248 17.1715V15.7619H359.193V17.1715L356.502 17.2997V40.7504L359.193 41.0067V42.4163H351.248V41.0067L354.067 40.7504V17.2997L351.248 17.1715Z" fill="#009FE3"/>
<path d="M363.55 15.7619H366.241L375.083 33.7023C376.236 36.009 376.877 37.6749 377.389 39.4689H377.518C377.389 37.6749 377.261 35.6245 377.261 32.9335V15.7619H379.568V42.4163H376.877L368.419 25.2447C366.881 22.2974 366.241 20.3752 365.728 18.7093H365.6C365.856 20.5033 365.856 22.8099 365.856 25.8854V42.4163H363.55V15.7619Z" fill="#009FE3"/>
<path d="M393.279 42.8007C386.872 42.8007 383.925 38.1875 383.925 29.2172C383.925 20.8878 386.616 15.3775 393.536 15.3775C396.355 15.3775 398.533 16.1464 400.199 17.6841L398.918 19.4782C397.124 18.0686 395.714 17.4278 393.536 17.4278C388.154 17.4278 386.488 21.6566 386.488 29.0891C386.488 36.7778 388.282 40.7504 393.279 40.7504C395.458 40.7504 397.252 39.8534 398.662 38.5719V30.6268H392.895V28.5765H400.968V42.4163H399.302L398.79 40.4941C397.636 41.7755 395.714 42.8007 393.279 42.8007Z" fill="#009FE3"/>
<path d="M250.397 17.4278L248.859 19.2219C249.756 20.1189 250.141 21.5285 250.141 23.5788C250.141 27.6795 248.475 29.3454 244.887 29.3454H240.53V28.961L238.095 31.7802V42.2881H240.53V31.3957H245.143C250.012 31.3957 252.703 28.5765 252.703 23.3225C252.703 20.7596 251.935 18.7093 250.397 17.4278Z" fill="#009FE3"/>
</svg>
