<svg width="2071" height="302" viewBox="0 0 2071 302" fill="none" xmlns="http://www.w3.org/2000/svg">
<path d="M1391.95 185.273L1417.56 116.737H1424.34L1449.19 185.273H1443.17L1435.63 164.185H1405.51L1397.98 185.273H1391.95ZM1408.52 158.16H1434.13L1421.32 122.009L1408.52 158.16Z" fill="#00205C"/>
<path d="M1455.97 185.273V116.737H1461.99V180.001H1497.39V185.273H1455.97Z" fill="#00205C"/>
<path d="M1502.66 185.273V116.737H1545.59V122.762H1509.44V147.616H1541.83V152.888H1509.44V185.273H1502.66Z" fill="#00205C"/>
<path d="M1557.64 154.394V185.273H1551.62V116.737H1577.22C1591.53 116.737 1599.82 122.009 1599.82 134.813C1599.82 143.097 1596.81 147.616 1589.28 151.382C1596.81 154.394 1597.56 162.679 1597.56 170.21C1597.56 180.754 1598.31 183.767 1600.57 184.52V185.273H1593.79C1591.54 180.754 1591.54 167.951 1590.78 162.679C1589.28 155.148 1584 154.394 1577.98 154.394H1557.64ZM1576.47 149.122C1585.51 149.122 1593.04 145.357 1593.04 135.566C1593.04 125.022 1585.51 122.762 1577.22 122.762H1557.64V149.122H1576.47Z" fill="#00205C"/>
<path d="M1609.61 185.273V116.737H1652.54V122.762H1615.64V147.616H1649.53V152.888H1615.64V180.001H1654.05V185.273H1609.61Z" fill="#00205C"/>
<path d="M1662.33 185.273V116.737H1684.92C1692.46 116.737 1699.23 117.49 1705.26 122.009C1714.3 128.788 1716.56 142.344 1716.56 151.382C1716.56 160.42 1714.3 170.21 1708.27 177.742C1702.25 184.52 1693.96 186.026 1684.92 186.026H1662.33V185.273ZM1668.36 180.001H1683.42C1688.69 180.001 1693.96 179.248 1698.48 176.989C1707.52 172.47 1709.78 160.42 1709.78 151.382C1709.78 141.591 1707.52 130.294 1698.48 125.022C1694.72 122.762 1688.69 122.762 1683.42 122.762H1668.36V180.001Z" fill="#00205C"/>
<path d="M1752.71 115.231C1773.04 115.231 1783.59 131.047 1783.59 151.382C1783.59 170.963 1773.04 187.533 1752.71 187.533C1732.37 187.533 1721.83 170.963 1721.83 151.382C1722.58 131.047 1733.13 115.231 1752.71 115.231ZM1777.56 151.382C1777.56 132.553 1768.52 120.503 1752.71 120.503C1736.14 120.503 1728.61 135.566 1728.61 151.382C1728.61 167.198 1736.14 181.507 1752.71 181.507C1770.03 181.507 1777.56 167.198 1777.56 151.382Z" fill="#00205C"/>
<path d="M1397.98 298.998V230.462H1407.01L1428.86 290.713L1449.94 230.462H1459.73V298.998H1452.96V237.993L1431.87 298.998H1425.84L1404 237.993V298.998H1397.98Z" fill="#00205C"/>
<path d="M1498.9 228.202C1519.23 228.202 1529.78 244.018 1529.78 264.353C1529.78 283.935 1519.23 300.504 1498.9 300.504C1478.56 300.504 1468.02 283.935 1468.02 264.353C1468.77 244.772 1479.32 228.202 1498.9 228.202ZM1523 264.353C1523 245.525 1513.96 233.474 1498.14 233.474C1481.58 233.474 1474.04 248.537 1474.04 264.353C1474.04 280.169 1481.58 294.479 1498.14 294.479C1516.22 295.232 1523 280.169 1523 264.353Z" fill="#00205C"/>
<path d="M1538.81 298.998V230.462H1544.84V292.973H1580.24V298.998H1538.81Z" fill="#00205C"/>
<path d="M1595.3 230.462H1589.28V298.998H1595.3V230.462Z" fill="#00205C"/>
<path d="M1615.64 238.746H1614.88V298.998H1608.86V230.462H1616.39L1654.05 289.96V230.462H1660.07V298.998H1653.29L1615.64 238.746Z" fill="#00205C"/>
<path d="M1666.1 298.998L1691.7 230.462H1698.48L1723.33 298.998H1717.31L1709.78 277.157H1679.65L1672.12 298.998H1666.1ZM1681.91 271.885H1707.52L1694.72 235.734L1681.91 271.885Z" fill="#00205C"/>
<path d="M1751.95 298.998V230.462H1794.13V235.734H1757.98V260.587H1790.36V265.859H1757.98V298.998H1751.95Z" fill="#00205C"/>
<path d="M1800.16 298.998V230.462H1806.18V292.973H1841.58V298.998H1800.16Z" fill="#00205C"/>
<path d="M1875.47 228.202C1895.81 228.202 1906.35 244.018 1906.35 264.353C1906.35 283.935 1895.81 300.504 1875.47 300.504C1855.14 300.504 1844.59 283.935 1844.59 264.353C1845.34 244.772 1855.89 228.202 1875.47 228.202ZM1900.32 264.353C1900.32 245.525 1891.29 233.474 1875.47 233.474C1858.9 233.474 1851.37 248.537 1851.37 264.353C1851.37 280.169 1858.9 294.479 1875.47 294.479C1892.79 295.232 1900.32 280.169 1900.32 264.353Z" fill="#00205C"/>
<path d="M1922.16 267.366V298.245H1916.14V229.709H1941.75C1956.06 229.709 1964.34 234.981 1964.34 247.784C1964.34 256.069 1961.33 261.341 1953.8 264.353C1961.33 267.366 1962.08 275.651 1962.08 283.182C1962.08 293.726 1962.83 296.739 1965.09 297.492V298.245H1958.32C1956.06 293.726 1956.81 280.923 1955.3 275.651C1953.8 268.119 1948.52 267.366 1942.5 267.366H1922.16ZM1940.99 262.094C1950.03 262.094 1957.56 258.328 1957.56 248.537C1957.56 237.993 1950.03 235.734 1941.75 235.734H1922.16V262.094H1940.99Z" fill="#00205C"/>
<path d="M1973.38 298.998V230.462H2017.06V235.734H1980.16V260.587H2013.29V265.859H1980.16V292.973H2018.57V298.998H1973.38Z" fill="#00205C"/>
<path d="M2029.11 278.663C2029.86 290.713 2038.15 295.232 2047.94 295.232C2059.99 295.232 2064.51 288.454 2064.51 280.922C2064.51 259.834 2024.59 273.391 2024.59 247.031C2024.59 237.24 2032.12 228.956 2046.43 228.956C2061.5 228.956 2068.27 237.993 2068.27 249.29H2062.25C2062.25 238.746 2054.72 234.228 2046.43 234.228C2033.63 234.228 2029.11 242.512 2030.62 249.29C2033.63 266.613 2070.53 254.562 2070.53 280.922C2070.53 293.726 2061.5 301.257 2046.43 301.257C2032.88 301.257 2022.33 293.726 2022.33 278.663H2029.11Z" fill="#00205C"/>
<path d="M0.143311 301.257L258.471 2.25952H426.422V298.998H330.02V216.152H190.688L118.386 301.257H0.143311ZM331.526 143.097V56.4858L253.199 143.097H331.526Z" fill="#00205C"/>
<path d="M473.117 300.504H570.272V111.465L666.675 299.751H746.508L842.157 110.712V300.504H935.547V2.25952H784.918L705.838 183.767L624.498 3.01266H473.117V300.504Z" fill="#00205C"/>
<path d="M979.983 1.50641V301.257H1077.14V218.412H1256.39V149.876H1077.14V90.3773H1294.8V1.50641H979.983Z" fill="#00205C"/>
<path d="M1400.24 32.3852C1400.99 13.5566 1401.74 0 1421.32 0C1431.87 0 1439.4 3.01257 1441.66 15.816C1442.41 18.8286 1442.41 21.8412 1442.41 24.8537H1430.36C1430.36 17.3223 1429.61 11.2972 1421.32 11.2972C1411.53 11.2972 1412.29 24.1006 1412.29 29.3726V49.7075C1412.29 55.7326 1413.04 65.5235 1421.32 65.5235C1428.1 65.5235 1430.36 57.2389 1430.36 45.9417H1422.08V35.3977H1442.41V74.5612H1433.37V66.2766C1431.12 73.8081 1426.6 76.0675 1422.08 76.0675C1401.74 76.0675 1400.99 61.7578 1400.99 42.176V32.3852H1400.24Z" fill="#00205C"/>
<path d="M1466.51 42.9293V74.5613H1454.46V1.50641H1477.81C1488.35 1.50641 1496.64 5.27213 1496.64 18.8287C1496.64 27.1133 1495.13 35.3979 1486.85 36.151C1494.38 36.9041 1496.64 42.1761 1496.64 49.7076C1496.64 52.7202 1496.64 70.7956 1498.9 73.055V74.5613H1485.34C1483.84 70.0424 1483.84 61.0047 1483.84 56.4859C1483.84 51.967 1483.83 45.9419 1479.32 44.4356C1476.3 43.6824 1472.54 43.6824 1468.77 43.6824H1466.51V42.9293ZM1466.51 32.3853H1476.3C1480.07 32.3853 1483.84 29.3727 1483.84 21.8413C1483.84 13.5567 1480.82 12.0504 1476.3 12.0504H1467.27V32.3853H1466.51Z" fill="#00205C"/>
<path d="M1537.31 1.50641H1549.36V52.7202C1549.36 68.5362 1544.84 76.8208 1529.02 76.8208C1513.21 76.8208 1507.94 69.2893 1507.94 52.7202V1.50641H1519.99V51.2139C1519.99 57.9922 1520.74 65.5236 1529.02 65.5236C1537.31 65.5236 1537.31 58.7453 1537.31 51.2139V1.50641Z" fill="#00205C"/>
<path d="M1561.41 74.5613V1.50641H1586.26C1598.31 1.50641 1601.33 12.0504 1601.33 21.8413C1601.33 27.8664 1599.82 35.3979 1595.3 39.1636C1591.53 42.9293 1586.26 43.6824 1581.74 43.6824H1573.46V74.5613H1561.41ZM1573.46 33.1384H1580.24C1585.51 33.1384 1589.28 30.879 1589.28 21.8413C1589.28 13.5567 1586.26 12.0504 1579.48 12.0504H1574.21V33.1384H1573.46Z" fill="#00205C"/>
<path d="M1609.61 32.3852C1610.36 13.5566 1611.12 0 1630.7 0C1650.28 0 1651.79 13.5566 1651.79 32.3852V42.9292C1651.79 62.5109 1650.28 76.8206 1630.7 76.8206C1610.36 76.8206 1609.61 62.5109 1609.61 42.9292V32.3852ZM1621.66 49.7075C1621.66 55.7326 1622.41 65.5235 1630.7 65.5235C1639.74 65.5235 1639.74 55.7326 1639.74 48.2012V29.3726C1639.74 23.3474 1639.74 10.544 1630.7 10.544C1620.91 10.544 1621.66 23.3474 1621.66 28.6194V49.7075Z" fill="#00205C"/>
</svg>
