<svg width="419" height="51" viewBox="0 0 419 51" fill="none" xmlns="http://www.w3.org/2000/svg">
<path d="M223.871 50.8739H222.461L266.415 0H267.825L223.871 50.8739Z" fill="#009FE3"/>
<path d="M0 50.6176L43.4414 0.256287H71.7617V50.2332H55.6153V36.2653H32.2927L20.247 50.4894H0V50.6176ZM55.7434 24.0914V9.48278L42.5444 24.0914H55.7434Z" fill="#00205C"/>
<path d="M79.5785 50.4894H95.9812V18.7093L112.128 50.3613H125.583L141.601 18.5811V50.4894H157.363V0.384441H131.99L118.663 30.8831L104.951 0.512575H79.5785V50.4894Z" fill="#00205C"/>
<path d="M164.795 0.256287V50.6176H181.198V36.7778H211.312V25.1166H181.198V15.1212H217.72V0.256287H164.795Z" fill="#00205C"/>
<path d="M248.09 22.81V27.4232H256.804V29.4735H248.09V40.4941H259.367V42.5444H245.527V25.6292" fill="#009FE3"/>
<path d="M254.241 15.6338H258.855V17.8123H252.319" fill="#009FE3"/>
<path d="M269.875 17.8123H263.34V15.6338H278.973V17.8123H272.438V42.5444H269.875V17.8123Z" fill="#009FE3"/>
<path d="M283.33 17.0434V15.6338H291.404V17.0434L288.584 17.2997V40.8785L291.404 41.1348V42.5444H283.33V41.1348L286.15 40.8785V17.2997L283.33 17.0434Z" fill="#009FE3"/>
<path d="M315.623 44.851L314.854 47.1577L302.68 42.8007C298.58 41.2629 296.017 37.803 296.017 29.3454C296.017 20.3752 299.349 15.3775 305.5 15.3775C311.779 15.3775 315.111 20.247 315.111 29.2172C315.111 37.4186 312.932 41.7755 307.678 42.5444L315.623 44.851ZM312.419 29.3454C312.419 21.4003 310.369 17.4278 305.5 17.4278C300.63 17.4278 298.58 21.4004 298.58 29.2172C298.58 37.1623 300.502 41.0067 305.5 41.0067C310.497 41.0067 312.419 37.1623 312.419 29.3454Z" fill="#009FE3"/>
<path d="M335.358 15.6338H337.92V42.5444H336.126L335.486 39.9815C333.948 41.5192 331.641 43.057 328.566 43.057C324.593 43.057 321.518 40.8785 321.518 35.1119V15.7619H323.953V34.5994C323.953 39.0845 325.362 40.8785 328.694 40.8785C331.769 40.8785 334.076 39.2126 335.229 38.0593V15.6338H335.358Z" fill="#009FE3"/>
<path d="M345.481 15.6338H358.808V17.8123H347.916V27.4232H356.758V29.4735H347.916V40.4941H359.193V42.5444H345.481V15.6338Z" fill="#009FE3"/>
<path d="M369.829 17.8123H363.165V15.6338H378.927V17.8123H372.264V42.5444H369.829V17.8123Z" fill="#009FE3"/>
<path d="M383.284 42.5444H380.721L389.179 15.6338H391.87L400.071 42.5444H397.38L394.817 33.8305H385.847L383.284 42.5444ZM391.998 24.2196C391.101 21.2722 390.845 19.6063 390.588 18.0686H390.46C390.204 19.6063 389.82 21.2722 388.923 24.2196L386.616 31.9083H394.305L391.998 24.2196Z" fill="#009FE3"/>
<path d="M402.762 39.8534L404.044 38.0593C405.838 39.7252 407.888 40.8785 410.707 40.8785C414.68 40.8785 416.218 38.9563 416.218 35.7527C416.218 32.1646 414.295 31.0113 410.707 29.6017C406.735 27.9358 404.3 26.398 404.3 21.9129C404.3 17.6841 407.119 15.3775 411.348 15.3775C414.295 15.3775 415.961 16.0182 417.627 17.1715L416.602 19.0937C415.064 18.0685 413.527 17.4278 411.476 17.4278C408.785 17.4278 406.735 18.8374 406.735 21.9129C406.735 25.1166 408.273 25.8855 411.604 27.2951C415.961 29.0891 418.781 30.755 418.781 35.6245C418.781 39.5971 416.602 42.9288 410.835 42.9288C407.376 42.9288 404.556 41.6474 402.762 39.8534Z" fill="#009FE3"/>
</svg>
