<svg width="409" height="60" viewBox="0 0 409 60" fill="none" xmlns="http://www.w3.org/2000/svg">
<g filter="url(#filter0_d_832_28)">
<path d="M229.024 51.2583H227.743L271.953 0H273.363L229.024 51.2583Z" fill="#009FE3"/>
<path d="M4 51.002L47.6977 0.384399H76.1461V50.6175H59.8716V36.6497H36.4209L24.247 51.002H4ZM59.9997 24.3477V9.73905L46.8007 24.3477H59.9997Z" fill="#00205C"/>
<path d="M84.0912 50.8738H100.494V18.9655L116.768 50.7457H130.224L146.498 18.7093V50.8738H162.26V0.384399H136.631L123.304 31.1394L109.592 0.640687H84.0912V50.8738Z" fill="#00205C"/>
<path d="M169.693 0.384399V51.002H186.223V37.0341H216.466V25.3728H186.223V15.3775H222.873V0.384399H169.693Z" fill="#00205C"/>
<path d="M390.872 42.8007H404.712V40.7504H393.435V29.7298H402.277V27.6795H393.435V18.0686H404.328V15.8901H391V42.8007H390.872ZM372.676 42.8007H385.106V40.7504H375.11V15.8901H372.676V42.8007ZM353.325 27.8077V18.0686H358.067C359.861 18.0686 361.142 18.453 361.783 19.35C362.424 20.2471 362.808 21.4004 362.808 23.0663C362.808 24.604 362.424 25.8855 361.783 26.6544C361.142 27.4232 359.861 27.8077 358.067 27.8077H353.325ZM353.325 40.7504V29.858H358.323C360.502 29.858 361.911 30.2424 362.808 31.1395C363.705 32.0365 364.09 33.4461 364.09 35.2401C364.09 37.0342 363.705 38.4438 362.808 39.3408C361.911 40.2378 360.374 40.7504 358.323 40.7504H353.325ZM350.891 42.8007H358.323C359.605 42.8007 360.63 42.6726 361.655 42.4163C362.68 42.16 363.577 41.6474 364.218 41.1348C364.987 40.4941 365.499 39.7252 365.884 38.8282C366.268 37.9312 366.525 36.7779 366.525 35.4964C366.525 33.4461 366.14 31.9083 365.243 30.8832C364.346 29.7299 363.321 29.0891 361.911 28.7047C363.193 28.1921 364.09 27.5514 364.602 26.6544C365.115 25.7573 365.371 24.604 365.371 23.1944C365.371 22.1693 365.243 21.2722 364.987 20.3752C364.73 19.4782 364.346 18.7093 363.705 18.0686C363.065 17.4279 362.296 16.9153 361.399 16.5308C360.502 16.1464 359.348 16.0183 357.939 16.0183H350.763V42.8007H350.891ZM340.126 32.0365H332.438L334.744 24.3477C335.129 22.9381 335.513 21.7848 335.77 20.7596C336.026 19.8626 336.154 18.9656 336.282 18.1967H336.41C336.538 18.9656 336.667 19.7345 336.923 20.7596C337.179 21.6567 337.435 22.9381 337.948 24.3477L340.126 32.0365ZM331.797 34.215H340.767L343.33 42.9289H346.021L337.82 16.0183H335.129L326.671 42.9289H329.234L331.797 34.215ZM317.829 17.556V41.1348L315.01 41.3911V42.8007H323.083V41.3911L320.264 41.1348V17.556L323.083 17.2997V15.8901H315.01V17.2997L317.829 17.556ZM296.941 28.961V18.0686H301.17C303.221 18.0686 304.63 18.453 305.399 19.35C306.168 20.2471 306.68 21.5285 306.68 23.1944C306.68 24.9885 306.296 26.3981 305.527 27.4232C304.758 28.3202 303.349 28.8328 301.298 28.8328H296.941V28.961ZM294.507 42.8007H296.941V30.8832H300.017C300.658 30.8832 301.17 30.8832 301.683 31.0113C302.195 31.1395 302.58 31.3957 302.964 31.652C303.349 31.9083 303.733 32.2928 303.989 32.8054C304.246 33.3179 304.63 33.9587 304.886 34.7275L307.834 42.6726H310.525L307.449 34.3431C306.937 33.0616 306.424 32.0365 305.912 31.5239C305.399 30.8832 304.758 30.4987 304.118 30.2424C307.449 29.4736 309.115 27.0388 309.115 23.0663C309.115 21.7848 308.859 20.6315 308.474 19.7345C308.09 18.8375 307.577 18.0686 306.809 17.4279C306.168 16.7871 305.271 16.4027 304.374 16.1464C303.349 15.8901 302.324 15.762 301.17 15.762H294.378V42.8007H294.507ZM283.614 32.0365H275.925L278.232 24.3477C278.617 22.9381 279.001 21.7848 279.257 20.7596C279.514 19.8626 279.642 18.9656 279.77 18.1967H279.898C280.026 18.9656 280.154 19.7345 280.411 20.7596C280.667 21.6567 280.923 22.9381 281.436 24.3477L283.614 32.0365ZM275.157 34.215H284.127L286.69 42.9289H289.381L281.179 16.0183H278.488L270.031 42.9289H272.594L275.157 34.215ZM252.603 24.0914L258.241 42.9289H260.804L269.006 16.0183H266.443L260.932 34.4712C260.548 35.6245 260.292 36.6497 260.035 37.5467C259.779 38.4438 259.651 39.2126 259.523 39.9815H259.395C259.266 39.3408 259.138 38.4438 258.882 37.5467C258.626 36.6497 258.369 35.6245 258.113 34.4712L254.397 21.913" fill="#009FE3"/>
</g>
<defs>
<filter id="filter0_d_832_28" x="0" y="0" width="408.712" height="59.2583" filterUnits="userSpaceOnUse" color-interpolation-filters="sRGB">
<feFlood flood-opacity="0" result="BackgroundImageFix"/>
<feColorMatrix in="SourceAlpha" type="matrix" values="0 0 0 0 0 0 0 0 0 0 0 0 0 0 0 0 0 0 127 0" result="hardAlpha"/>
<feOffset dy="4"/>
<feGaussianBlur stdDeviation="2"/>
<feComposite in2="hardAlpha" operator="out"/>
<feColorMatrix type="matrix" values="0 0 0 0 0 0 0 0 0 0 0 0 0 0 0 0 0 0 0.25 0"/>
<feBlend mode="normal" in2="BackgroundImageFix" result="effect1_dropShadow_832_28"/>
<feBlend mode="normal" in="SourceGraphic" in2="effect1_dropShadow_832_28" result="shape"/>
</filter>
</defs>
</svg>
